<?xml version="1.0" standalone="no"?> <!DOCTYPE svg PUBLIC "-//W3C//DTD SVG 20010904//EN" "http://www.w3.org/TR/2001/REC-SVG-20010904/DTD/svg10.dtd"> <svg version="1.0" xmlns="http://www.w3.org/2000/svg" width="400.000000pt" height="400.000000pt" viewBox="0 0 400.000000 400.000000" preserveAspectRatio="xMidYMid meet"> <g transform="translate(0.000000,400.000000) scale(0.066667,-0.066667)" fill="#6acee2" stroke="none"> <path d="M2875 5971 c25 -93 -25 -124 -288 -181 -73 -16 -118 -45 -286 -187 -66 -57 -76 -60 -147 -54 -286 25 -390 -10 -572 -193 -287 -290 -331 -613 -128 -929 l47 -73 -4 -239 -4 -239 62 -127 c35 -70 104 -176 154 -235 117 -140 116 -149 -26 -287 -155 -151 -248 -205 -408 -235 -259 -49 -512 -301 -467 -467 40 -150 225 -357 363 -406 41 -14 74 -31 74 -37 0 -44 145 -242 251 -343 311 -295 480 -389 695 -389 l116 0 45 -56 c24 -31 52 -73 63 -94 82 -157 256 -313 397 -353 117 -34 163 -66 263 -183 131 -152 150 -191 150 -307 0 -107 27 -234 67 -310 l24 -47 372 0 373 0 53 86 c29 48 67 124 86 169 18 45 40 99 49 120 66 157 24 420 -93 591 -59 85 -58 92 15 190 107 142 179 313 179 425 l0 62 94 33 c263 95 536 385 536 571 0 131 -156 328 -414 522 -214 161 -213 157 -86 267 669 581 980 1176 980 1872 0 298 -16 353 -138 486 -190 208 -256 206 -777 -23 -136 -60 -256 -113 -266 -117 -12 -4 -19 5 -19 25 0 18 -7 29 -15 24 -9 -6 -15 10 -15 39 0 79 -58 178 -172 293 -137 137 -182 153 -362 125 l-129 -20 -29 36 c-32 42 -58 123 -58 183 l0 41 -306 0 c-296 0 -306 -1 -299 -29z m335 -46 c106 -149 99 -313 -19 -439 -94 -101 -123 -156 -168 -317 -24 -84 -26 -87 -47 -56 -17 24 -38 32 -86 32 -100 0 -181 -17 -157 -33 13 -9 5 -12 -24 -9 -37 4 -46 -2 -56 -38 l-11 -42 64 10 c90 14 234 -51 234 -105 0 -19 -58 -22 -86 -4 -27 18 -99 -4 -127 -40 -23 -29 -26 -29 -35 -5 -12 31 -71 34 -95 5 -14 -16 -10 -23 16 -31 31 -10 32 -12 6 -19 -17 -4 -34 3 -42 17 -7 13 -24 24 -36 24 -13 0 -19 7 -13 15 5 8 2 15 -6 15 -8 0 -19 -7 -24 -15 -6 -8 -18 -15 -28 -15 -11 0 -9 6 5 16 16 11 -4 13 -71 9 -59 -3 -89 0 -84 10 6 9 -8 11 -37 5 -28 -5 -62 -1 -87 12 -35 18 -93 19 -188 3 -14 -2 -34 -11 -45 -20 -11 -9 -31 -20 -43 -24 -15 -6 -12 -9 10 -10 18 0 36 -6 40 -13 4 -6 -18 -9 -50 -6 -31 3 -61 -1 -66 -10 -6 -9 4 -13 28 -8 l37 6 -36 -35 c-38 -38 -59 -130 -50 -220 l5 -52 35 67 c99 192 171 213 333 101 126 -88 233 -141 339 -169 108 -28 126 -45 62 -60 -48 -11 -46 -12 33 -21 45 -5 103 -20 128 -33 24 -13 64 -28 87 -34 75 -18 115 -73 115 -158 0 -88 7 -91 106 -37 40 22 82 36 95 31 154 -59 6 -372 -158 -333 -29 7 -44 -3 -80 -53 -81 -111 -237 -204 -434 -262 -103 -30 -99 -54 5 -33 85 17 128 7 115 -27 -5 -13 1 -27 14 -32 12 -4 19 -13 15 -19 -4 -7 2 -24 13 -39 32 -44 13 -87 -34 -74 -64 17 -227 26 -227 12 0 -7 34 -15 75 -17 41 -2 99 -15 129 -27 53 -22 56 -22 101 19 l46 43 -48 -57 c-66 -78 -52 -179 38 -278 25 -26 18 -123 -9 -123 -11 0 -37 13 -58 30 -51 40 -79 39 -67 -3 4 -19 11 -25 14 -15 4 10 17 18 31 18 20 0 19 -4 -5 -22 -16 -12 -44 -22 -61 -23 -33 0 -62 -44 -69 -105 -5 -39 -6 -40 -103 -43 -51 -2 -57 -5 -41 -23 11 -11 25 -18 31 -14 6 4 11 -3 11 -15 0 -13 8 -26 19 -30 14 -6 13 -12 -4 -23 -26 -19 -30 -47 -10 -74 22 -29 6 -35 -92 -38 -50 -1 -87 -8 -83 -15 4 -6 -5 -23 -20 -37 -16 -14 -61 -68 -101 -119 -40 -51 -78 -90 -84 -87 -13 9 -62 -57 -96 -130 -30 -62 -19 -106 14 -62 18 24 20 19 15 -44 -7 -84 34 -96 47 -13 6 38 20 37 20 -3 0 -22 5 -40 11 -40 10 0 94 166 94 186 0 4 17 45 38 90 40 89 45 114 22 114 -8 0 -15 -7 -15 -16 0 -9 -7 -11 -16 -6 -11 7 -8 19 8 36 12 14 23 32 23 40 0 22 56 65 69 54 6 -6 6 -2 0 8 -7 13 0 19 20 19 26 0 28 -5 16 -38 -19 -49 -19 -56 0 -44 8 5 15 22 15 38 0 16 6 29 13 29 18 0 32 -55 32 -132 0 -38 6 -61 15 -56 7 5 11 27 8 50 -24 156 -24 155 19 150 44 -5 63 -44 93 -199 9 -50 30 -151 45 -225 16 -75 33 -160 37 -189 8 -54 51 -89 106 -89 12 0 22 -11 22 -24 0 -16 8 -21 23 -15 15 6 20 3 13 -9 -8 -12 -2 -14 18 -7 25 9 26 8 5 -9 -13 -10 -21 -27 -18 -37 4 -11 -4 -19 -17 -19 -13 0 -24 -7 -24 -15 0 -21 25 -19 78 9 25 13 40 28 33 34 -7 5 -15 49 -18 97 -2 48 -10 100 -18 114 -7 15 -17 43 -20 63 -10 52 -48 173 -85 268 -52 133 -52 133 -10 143 21 5 41 19 46 31 11 29 29 26 47 -7 8 -16 44 -67 80 -115 36 -47 92 -130 124 -185 32 -55 70 -115 84 -133 l27 -33 17 37 c9 20 11 33 4 29 -8 -5 -10 2 -5 15 5 12 15 19 23 15 7 -5 13 -2 13 7 0 9 -11 16 -26 16 -21 0 -21 3 -5 19 15 14 21 14 26 1 4 -10 21 -36 37 -57 36 -45 66 -52 44 -9 -20 37 -20 50 -1 38 76 -46 -52 136 -239 342 -28 31 -63 76 -78 101 l-28 45 41 -1 c23 -1 69 -17 102 -37 33 -20 76 -44 97 -55 21 -10 41 -23 45 -28 4 -5 38 -26 75 -47 37 -21 110 -65 163 -99 96 -63 178 -90 215 -71 11 6 3 -3 -18 -20 -21 -17 -43 -31 -49 -32 -17 0 -13 -30 4 -30 8 0 43 20 77 45 35 25 72 45 83 45 12 0 24 9 29 21 6 15 46 20 172 18 132 -1 168 3 179 21 21 33 18 95 -7 128 -33 45 -28 52 36 52 33 0 63 7 69 15 5 9 -25 15 -81 15 -93 0 -122 -21 -87 -62 10 -11 4 -9 -12 5 -17 13 -73 45 -124 72 -52 26 -94 50 -94 54 0 4 13 0 29 -8 39 -21 41 -21 50 13 4 16 0 32 -9 36 -16 6 -5 12 60 33 42 13 8 27 -60 24 -54 -2 -87 11 -186 70 -67 39 -149 85 -182 101 -34 16 -62 35 -62 41 0 16 42 13 53 -4 5 -8 20 -15 34 -15 23 1 22 3 -3 22 -26 20 -25 23 23 43 68 30 15 32 -80 3 l-70 -21 -68 54 c-92 71 -90 73 62 83 161 11 509 107 457 127 -10 4 -27 0 -38 -9 -38 -32 -541 -117 -593 -100 -15 5 -43 25 -62 46 l-35 37 66 0 c275 0 650 148 1049 413 368 244 470 377 396 519 -20 40 -20 48 -1 63 86 68 295 415 295 490 0 251 -623 117 -1249 -268 -56 -34 -105 -62 -109 -62 -17 0 -5 58 15 75 29 24 29 45 1 45 -35 0 -27 27 11 38 18 6 81 33 139 59 58 27 119 53 137 59 32 10 79 54 58 54 -13 0 -115 -43 -279 -119 -79 -36 -104 -39 -104 -12 0 10 49 41 109 68 60 27 119 56 131 64 43 28 443 227 525 261 45 19 177 77 293 128 523 232 550 243 567 226 54 -54 14 -625 -60 -861 -186 -593 -798 -1218 -1362 -1391 -124 -38 -129 -42 -79 -73 30 -19 31 -18 14 2 -46 57 29 34 159 -48 295 -185 917 -608 918 -624 1 -87 -483 -305 -678 -306 -86 -1 -95 -18 -47 -91 66 -100 65 -370 -3 -466 -156 -222 -366 -138 -367 146 0 175 -126 157 -371 -52 -44 -37 -79 -76 -79 -86 0 -49 382 -404 480 -447 291 -125 329 -164 330 -330 1 -360 -356 -742 -460 -493 -18 43 -20 89 -12 221 14 234 26 212 -320 634 -110 134 -202 244 -205 244 -2 0 -29 -10 -58 -22 -174 -73 -239 -18 -311 261 l-41 157 -73 43 -72 43 -219 -9 c-263 -10 -294 2 -363 146 -32 66 -51 88 -83 95 -318 69 -322 187 -16 444 102 85 270 177 324 177 66 0 77 28 88 221 12 214 10 217 -103 116 -90 -81 -194 -143 -505 -300 -127 -64 -256 -139 -286 -167 -31 -27 -67 -50 -81 -50 -26 0 -33 38 -9 52 39 25 12 52 -56 56 -61 4 -72 10 -79 42 -24 98 17 123 217 131 174 7 194 15 414 170 99 70 206 168 345 315 144 152 220 221 266 241 62 26 65 30 60 84 l-4 57 -98 7 c-294 23 -561 359 -464 584 22 52 32 109 34 196 l3 124 -58 33 c-247 140 -260 458 -28 675 161 150 295 149 479 -2 63 -51 66 -52 74 -22 6 21 20 32 43 32 27 0 36 10 40 40 6 54 38 62 57 14 9 -25 26 -39 46 -39 24 0 29 -7 22 -29 -21 -65 69 -55 95 11 9 22 15 68 14 101 -6 143 78 227 292 293 306 94 319 111 245 312 -42 114 -12 151 51 62z m-607 -456 c-13 -56 -23 -127 -23 -159 0 -53 -67 -103 -98 -72 -18 18 -9 118 15 170 96 206 147 236 106 61z m1324 -13 c17 -20 8 -128 -44 -521 -17 -128 -39 -237 -48 -244 -26 -16 -52 -13 -60 8 -5 11 -8 8 -9 -7 -1 -30 -54 -63 -83 -52 -12 5 -22 57 -29 155 -22 302 -124 372 -302 207 -103 -95 -101 -94 -133 -45 -35 54 -31 73 44 181 62 88 71 127 19 78 -11 -10 -30 -21 -42 -23 -13 -3 -43 -20 -67 -38 -25 -19 -64 -45 -86 -59 l-40 -25 14 46 c34 121 142 196 292 202 54 3 126 20 183 43 73 31 305 101 366 111 5 1 16 -6 25 -17z m-1497 -68 c0 -15 -79 -49 -89 -39 -12 12 60 67 76 58 7 -5 13 -13 13 -19z m-90 -168 c0 -8 -10 -15 -22 -15 -13 0 -23 7 -23 15 0 8 10 15 23 15 12 0 22 -7 22 -15z m1239 -243 c43 -85 76 -333 48 -367 -17 -22 -97 -50 -108 -39 -22 22 -6 78 29 100 43 29 47 52 11 63 -15 5 -43 16 -62 26 -20 9 -53 15 -73 12 -33 -4 -36 0 -32 46 2 27 -2 76 -9 107 -29 137 132 179 196 52z m-513 9 c38 -21 80 -59 92 -83 28 -53 21 -53 105 4 85 57 102 46 95 -68 l-5 -84 49 0 c27 0 70 -11 96 -24 l46 -24 -41 -38 c-29 -27 -64 -41 -114 -46 -71 -6 -72 -7 -51 -40 23 -34 16 -53 -18 -53 -12 0 -20 17 -20 44 0 24 -7 48 -15 54 -8 5 -15 16 -15 24 0 8 7 11 15 6 20 -13 108 35 97 53 -5 8 -29 14 -54 14 -38 0 -45 6 -42 34 7 86 3 91 -45 57 l-44 -32 -38 38 c-52 52 -84 50 -84 -6 0 -24 7 -48 15 -53 28 -18 15 -45 -32 -68 -56 -28 -59 -46 -13 -70 28 -14 39 -13 57 4 31 32 42 13 18 -32 -15 -28 -16 -42 -3 -55 22 -22 63 10 63 50 0 42 14 35 93 -43 44 -43 72 -61 72 -47 0 25 53 79 93 93 32 11 57 -86 29 -114 -27 -27 -20 -38 28 -48 63 -14 71 -38 25 -75 -37 -29 -39 -36 -24 -81 10 -27 14 -52 10 -56 -15 -15 -88 13 -105 39 -15 24 -19 22 -40 -20 -39 -79 -80 -73 -74 11 l6 69 -49 -9 c-68 -13 -105 17 -70 56 14 15 41 28 61 28 19 0 35 7 35 15 0 8 -10 15 -22 15 -12 0 -30 15 -39 33 -18 32 -18 32 -40 -12 -80 -158 -180 -89 -110 75 33 76 27 83 -29 39 -57 -45 -210 -17 -210 39 0 39 119 126 173 126 28 0 52 7 52 15 0 8 -7 15 -16 15 -31 0 -77 134 -67 193 18 90 13 89 104 38z m-896 -76 c-5 -5 -14 -5 -20 0 -5 6 -1 10 10 10 11 0 16 -4 10 -10z m2671 -210 c68 -42 -24 -254 -195 -449 -103 -117 -100 -109 -68 -181 60 -137 -10 -231 -345 -455 -392 -263 -826 -435 -1097 -435 -62 0 -80 8 -128 53 -31 29 -81 70 -111 90 -30 20 -48 37 -40 37 7 0 -1 14 -19 30 -17 17 -46 30 -64 30 -38 0 -34 49 11 147 49 107 78 138 131 138 274 0 495 149 580 390 24 67 26 69 240 174 426 209 636 268 756 214 69 -32 19 -155 -147 -362 -62 -76 -71 -95 -58 -122 38 -79 25 -134 -49 -208 -42 -41 -343 -251 -360 -251 -5 0 -46 -24 -92 -52 -45 -29 -87 -53 -93 -53 -7 0 -56 -17 -109 -39 -330 -132 -606 -126 -681 15 l-30 55 31 86 c17 47 37 99 44 116 19 44 -22 -1 -56 -62 -163 -292 257 -443 701 -254 72 32 258 123 299 148 151 92 323 209 323 220 0 7 12 17 27 21 72 23 138 213 91 260 -13 13 -11 23 6 40 12 12 27 18 33 12 6 -6 9 -4 6 5 -6 20 31 86 57 101 11 7 20 21 20 32 0 11 14 32 30 47 17 14 30 39 30 54 0 16 7 28 15 28 8 0 15 16 15 34 0 19 8 43 17 52 48 48 -55 139 -158 139 -151 0 -589 -167 -778 -296 -77 -54 -109 -62 -95 -25 5 13 9 30 9 37 0 8 32 29 71 48 39 18 75 38 79 44 5 5 25 17 45 26 21 9 48 22 60 29 119 69 412 212 435 212 8 0 36 9 63 21 217 91 457 117 548 59z m-2067 -1114 c-24 -49 -44 -103 -44 -120 0 -51 -43 -36 -53 18 -15 82 -1 115 62 154 83 51 85 48 35 -52z m46 -273 c19 -13 18 -15 -4 -7 -14 4 -26 2 -26 -5 0 -8 14 -18 30 -23 17 -6 30 -17 30 -25 0 -8 7 -10 15 -5 9 5 14 4 12 -3 -8 -24 42 -78 81 -88 23 -5 38 -19 36 -34 -1 -13 14 -32 33 -41 42 -22 93 -75 93 -97 0 -9 5 -14 11 -10 16 10 54 -20 86 -69 14 -22 40 -41 56 -41 16 0 25 -7 20 -15 -6 -8 0 -15 12 -15 12 0 33 -17 46 -37 24 -38 66 -55 45 -19 -8 13 -4 12 13 -2 14 -11 22 -26 18 -32 -8 -14 37 -36 64 -32 11 2 19 -4 19 -12 0 -8 11 -11 25 -5 17 6 21 3 14 -8 -15 -24 -56 -22 -94 4 -17 12 -68 36 -114 53 -76 28 -255 133 -312 182 -12 11 -53 41 -90 66 -36 24 -76 53 -87 64 -11 11 -32 17 -45 14 -27 -5 -79 55 -108 127 -28 68 65 156 121 115z m87 -337 c89 -68 88 -73 -12 -68 -98 5 -104 10 -94 73 9 62 20 61 106 -5z m92 -97 c82 -19 117 -43 88 -61 -13 -8 -3 -13 27 -13 65 0 107 -46 70 -78 -69 -60 -155 -74 -207 -35 -41 31 -61 28 -32 -4 39 -43 -13 -93 -97 -93 -31 0 -31 -2 -8 -27 46 -51 34 -126 -16 -104 -23 10 -50 30 -61 45 -25 34 -48 33 -48 -1 0 -41 -43 -93 -78 -93 -32 0 -34 63 -3 143 11 28 10 28 -19 3 -39 -34 -83 -33 -127 4 l-35 30 42 37 c23 21 58 38 78 38 38 0 47 13 24 38 -27 30 -47 115 -32 142 20 37 82 22 127 -33 l38 -44 50 39 c52 39 70 37 70 -9 0 -24 12 -28 71 -27 123 3 161 26 45 28 -61 0 -101 7 -101 17 0 10 17 13 44 7 26 -6 60 -2 82 10 36 19 33 20 -51 20 -51 0 -97 8 -108 19 -23 23 69 24 167 2z m-194 -14 c0 -8 -7 -15 -15 -15 -8 0 -15 7 -15 15 0 8 7 15 15 15 8 0 15 -7 15 -15z m-60 -15 c0 -8 -7 -15 -16 -15 -9 0 -12 7 -6 15 5 8 12 15 15 15 4 0 7 -7 7 -15z m625 -40 c-5 -5 -10 -1 -10 10 0 11 5 16 10 10 6 -5 6 -14 0 -20z m-14 -111 c56 -26 115 -52 132 -59 16 -8 60 -27 97 -43 37 -16 128 -54 202 -84 74 -31 159 -75 190 -99 30 -24 62 -44 71 -44 10 0 17 -13 17 -30 0 -41 -51 -51 -207 -41 -118 7 -130 5 -155 -24 l-27 -32 -1 39 c0 46 -78 130 -190 204 -77 52 -240 139 -260 139 -40 1 -83 43 -64 62 13 13 69 48 90 57 2 0 50 -20 105 -45z m-901 6 c-5 -5 -14 -5 -20 0 -5 6 -1 10 10 10 11 0 16 -4 10 -10z m1123 -50 c-6 -8 -18 -15 -28 -15 -10 0 -9 6 5 15 29 19 34 19 23 0z m-1538 -427 c0 -3 -8 -11 -17 -17 -11 -7 -14 -4 -7 7 11 17 24 23 24 10z"/> <path d="M2348 5025 c5 -8 16 -15 24 -15 8 0 11 7 6 15 -6 8 -17 15 -25 15 -8 0 -11 -7 -5 -15z"/> <path d="M4850 5030 c6 -5 15 -5 20 0 6 6 1 10 -10 10 -11 0 -15 -4 -10 -10z"/> <path d="M2445 5010 c0 -8 7 -15 16 -15 9 0 12 7 7 15 -6 8 -13 15 -16 15 -4 0 -7 -7 -7 -15z"/> <path d="M2600 5015 c6 -5 15 -5 20 0 6 6 1 10 -10 10 -11 0 -15 -4 -10 -10z"/> <path d="M5027 4995 c0 -21 4 -29 8 -19 4 11 4 27 0 38 -4 10 -8 2 -8 -19z"/> <path d="M2258 4935 c-6 -8 0 -11 14 -6 26 10 30 21 9 21 -8 0 -18 -7 -23 -15z"/> <path d="M2720 4940 c6 -5 15 -5 20 0 6 6 1 10 -10 10 -11 0 -15 -4 -10 -10z"/> <path d="M4620 4935 c-14 -9 -15 -15 -5 -15 10 0 22 7 28 15 11 19 6 19 -23 0z"/> <path d="M5045 4815 c0 -78 3 -110 6 -71 3 39 3 103 0 142 -3 39 -6 7 -6 -71z"/> <path d="M2550 4905 c0 -8 7 -15 16 -15 9 0 12 7 7 15 -6 8 -13 15 -16 15 -4 0 -7 -7 -7 -15z"/> <path d="M2700 4890 c0 -11 5 -15 10 -10 6 6 6 15 0 20 -5 6 -10 1 -10 -10z"/> <path d="M3960 4650 c-14 -9 -15 -15 -5 -15 10 0 22 7 28 15 11 19 6 19 -23 0z"/> <path d="M5027 4620 c0 -21 4 -29 8 -19 4 11 4 27 0 38 -4 10 -8 2 -8 -19z"/> <path d="M1978 4515 c-41 -34 -31 -37 49 -13 45 14 72 13 119 -1 70 -21 93 -11 50 21 -44 33 -175 29 -218 -7z"/> <path d="M4995 4440 c0 -11 5 -15 10 -10 6 6 6 15 0 20 -5 6 -10 1 -10 -10z"/> <path d="M1988 4317 c-58 -33 -92 -80 -45 -62 17 6 22 -4 22 -44 0 -70 27 -144 61 -161 90 -49 194 14 194 118 0 33 4 70 9 83 22 58 -166 109 -241 66z m165 -94 c0 -45 -59 -41 -65 4 -5 30 0 35 30 30 23 -3 35 -14 35 -34z m-100 -105 c3 -17 -2 -24 -15 -20 -11 4 -23 19 -26 34 -3 17 2 24 15 20 11 -4 23 -19 26 -34z"/> <path d="M2577 4243 c-22 -8 -40 -26 -41 -40 0 -14 -4 -47 -10 -74 -39 -200 200 -235 265 -38 15 44 20 49 32 29 15 -27 72 -35 72 -10 0 8 -10 15 -22 15 -12 0 -27 17 -32 37 -18 71 -166 117 -264 81z m103 -67 c11 -28 -30 -74 -54 -59 -18 11 -22 57 -6 73 18 18 51 11 60 -14z m50 -129 c0 -16 -43 -34 -55 -22 -4 4 -4 14 0 22 11 17 55 17 55 0z"/> <path d="M2094 3863 c30 -76 283 -126 382 -75 63 33 56 56 -12 41 -108 -23 -234 -13 -291 23 -62 38 -91 42 -79 11z"/> <path d="M4176 3358 c-7 -11 -4 -14 7 -7 17 11 23 24 10 24 -3 0 -11 -8 -17 -17z"/> <path d="M4028 3270 c-6 -8 0 -11 14 -6 26 10 30 21 9 21 -8 0 -18 -7 -23 -15z"/> <path d="M3920 3215 c6 -5 15 -5 20 0 5 6 1 10 -10 10 -11 0 -15 -4 -10 -10z"/> <path d="M2220 3134 c0 -4 -6 -29 -14 -55 -8 -27 -8 -49 -2 -49 13 0 32 93 22 104 -3 3 -6 3 -6 0z"/> <path d="M2525 2960 c6 -5 15 -5 20 0 6 6 1 10 -10 10 -11 0 -15 -4 -10 -10z"/> <path d="M3563 2843 c16 -12 39 -22 51 -23 15 0 13 6 -7 22 -16 12 -39 22 -51 23 -15 0 -13 -6 7 -22z"/> <path d="M3675 2799 c0 -3 10 -14 23 -24 12 -11 22 -12 22 -3 0 8 -10 19 -22 23 -13 5 -23 7 -23 4z"/> <path d="M4178 2445 c5 -8 12 -15 15 -15 4 0 7 7 7 15 0 8 -7 15 -16 15 -9 0 -12 -7 -6 -15z"/> <path d="M2227 2429 c-6 -9 -7 -19 -3 -23 4 -4 11 3 16 16 10 26 2 31 -13 7z"/> <path d="M4259 2356 c130 -164 11 -230 -303 -169 -55 11 -74 9 -88 -6 -9 -12 -11 -21 -5 -21 6 0 -1 -14 -16 -31 -21 -23 -38 -28 -66 -20 -21 6 -76 12 -121 13 -45 2 -71 0 -56 -3 42 -10 30 -44 -23 -65 -27 -10 -60 -29 -75 -42 -24 -20 -32 -19 -82 4 -53 26 -57 26 -71 1 -104 -179 -207 -262 -324 -262 -91 0 -97 -11 -48 -84 65 -98 47 -107 372 183 128 114 181 150 190 127 3 -9 27 -9 65 -1 162 38 288 -49 204 -142 -15 -17 -47 -64 -71 -105 l-43 -75 56 45 c31 24 56 55 56 69 0 28 36 62 50 48 6 -6 10 -22 10 -38 0 -15 7 -27 15 -27 9 0 9 13 0 38 -30 77 -13 187 23 157 49 -41 36 22 -15 75 -50 51 -54 59 -36 88 24 39 9 37 235 32 273 -5 330 71 179 236 -52 57 -61 38 -12 -25z"/> <path d="M2290 2290 c-4 -11 -1 -30 6 -41 10 -16 14 -10 14 20 0 45 -7 53 -20 21z"/> <path d="M3450 2115 c-21 -16 -31 -29 -22 -29 8 0 31 13 52 29 21 16 31 29 23 29 -9 0 -32 -13 -53 -29z"/> <path d="M2876 1745 c-14 -4 -26 -13 -26 -21 0 -20 20 -17 53 8 30 22 22 25 -27 13z"/> <path d="M3828 1737 c-10 -10 -18 -30 -18 -44 0 -14 -8 -29 -19 -33 -11 -5 -8 -8 8 -9 15 -1 26 10 26 26 0 15 8 35 18 45 10 10 14 21 10 25 -4 4 -15 0 -25 -10z"/> <path d="M3755 1595 c6 -5 15 -5 20 0 6 6 1 10 -10 10 -11 0 -15 -4 -10 -10z"/> <path d="M3061 1571 c-1 -7 6 -20 15 -30 8 -10 25 -32 37 -48 11 -17 21 -24 21 -15 1 17 -73 110 -73 93z"/> <path d="M2775 1500 c0 -9 10 -20 23 -25 12 -4 22 -14 22 -21 0 -7 24 -38 54 -69 62 -65 53 -43 -24 59 -52 69 -75 86 -75 56z"/> <path d="M3691 681 c-28 -28 -48 -54 -44 -58 4 -4 34 19 66 52 32 33 52 60 44 59 -8 0 -37 -24 -66 -53z"/> <path d="M3796 651 c1 -17 4 -21 9 -9 5 11 4 24 -1 29 -5 5 -8 -4 -8 -20z"/> <path d="M3711 596 l-28 -33 33 28 c32 27 41 39 29 39 -3 0 -18 -15 -34 -34z"/> <path d="M3789 576 c-6 -22 -7 -43 -3 -47 4 -4 12 10 18 32 5 22 6 44 2 48 -4 4 -12 -11 -17 -33z"/> <path d="M3735 419 c0 -9 7 -12 15 -6 8 5 15 12 15 15 0 4 -7 7 -15 7 -8 0 -15 -7 -15 -16z"/> <path d="M3428 5280 c-27 -11 -25 -13 12 -14 24 -1 38 5 33 14 -6 8 -11 15 -13 14 -1 -1 -16 -7 -32 -14z"/> <path d="M3620 5270 c6 -5 15 -5 20 0 6 6 1 10 -10 10 -11 0 -15 -4 -10 -10z"/> <path d="M3797 4965 c0 -21 4 -29 8 -19 4 11 4 27 0 38 -4 10 -8 2 -8 -19z"/> <path d="M3784 4845 c0 -37 3 -52 7 -34 3 19 3 49 0 68 -4 18 -7 3 -7 -34z"/> <path d="M3374 4468 c-12 -23 -21 -27 -33 -15 -10 10 -26 17 -36 17 -28 0 -25 -41 5 -57 22 -13 21 -16 -8 -25 -45 -14 -41 -43 6 -32 31 8 37 4 37 -23 0 -28 3 -29 25 -11 19 16 26 16 31 2 10 -29 34 -23 34 8 0 15 8 36 19 46 15 15 14 22 -6 33 -16 9 -22 26 -17 51 9 48 -32 53 -57 6z"/> <path d="M3038 2940 c5 -8 12 -15 16 -15 4 0 4 7 -1 15 -6 8 -13 15 -17 15 -4 0 -4 -7 2 -15z"/> <path d="M2640 2738 c0 -20 7 -41 16 -46 10 -6 3 -17 -18 -28 -46 -22 -47 -62 -2 -60 26 1 34 -7 34 -34 0 -43 30 -46 41 -5 9 36 16 37 52 5 33 -30 55 -14 31 24 -15 24 -12 29 19 37 45 12 48 34 7 47 -19 6 -30 22 -30 46 0 33 -4 35 -30 21 -23 -13 -38 -11 -64 7 -45 32 -56 29 -56 -14z"/> <path d="M2850 2714 c0 -9 7 -12 15 -6 8 5 15 12 15 15 0 4 -7 7 -15 7 -8 0 -15 -7 -15 -16z"/> </g> </svg>