<?xml version="1.0" standalone="no"?>
<!DOCTYPE svg PUBLIC "-//W3C//DTD SVG 20010904//EN"
 "http://www.w3.org/TR/2001/REC-SVG-20010904/DTD/svg10.dtd">
<svg version="1.0" xmlns="http://www.w3.org/2000/svg"
 width="120.000000pt" height="120.000000pt" viewBox="0 0 120.000000 120.000000"
 preserveAspectRatio="xMidYMid meet">
<g transform="translate(0.000000,120.000000) scale(0.100000,-0.100000)"
fill="#6fa4af" stroke="none">
<path d="M442 1096 c-40 -41 -72 -80 -72 -88 0 -8 -18 -43 -40 -77 -44 -68
-99 -109 -192 -143 -73 -26 -84 -39 -63 -71 19 -29 100 -67 144 -67 51 0 61
-9 61 -54 0 -34 4 -43 26 -53 14 -6 32 -9 40 -6 8 3 14 1 14 -4 0 -5 -25 -22
-55 -38 -30 -15 -55 -31 -55 -36 0 -5 -12 -12 -26 -15 -17 -4 -23 -11 -20 -21
3 -8 6 -26 6 -39 0 -18 5 -24 23 -24 13 0 27 3 31 7 10 10 76 32 76 25 0 -4
-12 -38 -26 -75 -29 -75 -25 -87 27 -87 39 0 54 -20 68 -89 11 -55 10 -65 -3
-80 -19 -21 -21 -51 -3 -51 6 0 26 9 43 19 l31 19 -5 76 c-4 74 -4 76 18 76
21 0 22 -3 19 -81 l-4 -81 38 -15 c47 -19 55 -12 35 30 -13 27 -14 42 -4 94
11 64 34 94 65 86 9 -2 24 2 34 9 17 13 17 17 -12 83 -16 39 -28 71 -26 73 2
2 13 -2 25 -8 12 -6 28 -9 36 -6 8 3 14 -1 14 -9 0 -22 11 -19 43 11 20 18 27
33 23 47 -7 27 31 116 61 144 20 18 22 25 14 41 -16 31 -51 17 -51 -19 0 -63
-65 -168 -82 -131 -2 4 -24 18 -50 32 -44 22 -68 47 -34 34 8 -3 17 -1 20 5 4
6 13 8 21 4 12 -4 15 5 15 41 0 41 2 46 23 46 76 0 201 59 184 86 -3 5 -47 31
-99 57 -91 47 -95 51 -122 107 -29 60 -40 126 -24 136 5 4 23 -6 39 -22 16
-15 32 -25 35 -21 10 9 -35 123 -54 140 -18 15 -124 57 -146 57 -7 0 -45 -33
-84 -74z m70 42 c-16 -16 -15 -31 1 -21 6 4 15 8 19 8 3 0 10 4 15 9 5 5 3 6
-4 2 -7 -4 -13 -2 -13 3 0 16 16 13 34 -4 8 -9 28 -20 43 -26 35 -12 59 -47
44 -62 -7 -7 -16 -5 -30 7 -20 18 -20 18 -10 -10 8 -21 8 -37 0 -56 l-11 -28
-104 0 c-57 0 -112 -3 -121 -6 -15 -6 -15 -3 2 29 16 33 131 167 142 167 3 0
0 -5 -7 -12z m101 -218 c16 -8 35 -27 44 -43 15 -29 14 -30 -9 -24 -85 21
-172 29 -250 23 -88 -6 -88 -6 -76 15 23 38 65 50 168 46 52 -2 108 -10 123
-17z m-33 -73 c30 -8 75 -26 100 -42 25 -16 48 -29 52 -30 3 0 10 -4 15 -9 5
-5 3 -6 -4 -2 -7 4 -13 3 -13 -2 0 -5 18 -15 40 -22 53 -18 68 -35 41 -49 -25
-14 -68 -14 -76 -1 -4 6 -10 8 -15 5 -5 -3 -7 13 -6 35 l3 40 -49 15 c-142 42
-263 40 -452 -7 -78 -19 -115 -18 -60 2 16 6 52 22 79 37 28 14 66 30 85 34
59 12 202 9 260 -4z m-184 -59 c4 -7 4 -10 -1 -6 -4 4 -14 0 -22 -8 -8 -8 -20
-11 -26 -7 -7 3 -9 3 -5 -2 11 -12 -11 -35 -27 -29 -10 4 -13 -3 -10 -28 1
-18 6 -41 10 -50 4 -10 3 -18 -3 -18 -21 0 -31 28 -29 84 l2 59 45 4 c25 3 47
6 49 9 7 6 9 5 17 -8z m144 -12 c0 -26 -10 -28 -62 -8 -47 19 -43 32 11 32 47
0 51 -2 51 -24z m92 3 c31 -7 48 -17 51 -30 7 -27 -7 -32 -27 -10 -10 11 -25
17 -36 14 -19 -5 -70 23 -70 39 0 5 8 7 18 4 9 -3 38 -10 64 -17z m-202 1 c0
-18 64 -50 99 -50 25 0 32 3 27 15 -7 20 1 19 31 -5 14 -11 34 -20 44 -20 26
0 30 -12 17 -54 -39 -125 -264 -141 -314 -21 -21 50 -18 72 10 79 14 3 35 19
48 35 24 31 38 38 38 21z m-180 -55 c0 -18 -7 -28 -27 -36 -15 -6 -29 -6 -32
-1 -3 5 -17 13 -30 17 l-24 7 21 17 c12 9 38 17 57 18 31 3 35 0 35 -22z m444
-31 c8 -21 8 -20 -10 -38 -25 -26 -33 -19 -21 19 11 38 21 44 31 19z m-34
-108 c0 -19 -20 -32 -50 -34 -24 -1 -24 -1 5 23 35 28 45 31 45 11z m-300 -11
c7 -9 10 -18 6 -22 -3 -3 -6 -2 -6 4 0 6 -9 9 -20 6 -16 -4 -19 -2 -14 11 8
20 18 20 34 1z m109 -32 c3 -2 -3 -11 -13 -21 -16 -16 -18 -16 -32 2 -8 11
-14 24 -14 28 0 8 49 0 59 -9z m85 -8 c-17 -26 -29 -31 -39 -15 -3 5 -13 6
-23 3 -15 -6 -15 -5 -2 8 18 18 38 27 63 28 16 1 16 -1 1 -24z m-138 -22 c18
-23 25 -26 35 -15 7 6 20 12 29 12 9 0 11 -3 5 -8 -16 -12 -16 -50 1 -56 11
-4 15 0 14 17 -4 43 -1 48 19 37 16 -8 23 -5 39 17 l20 27 43 -35 c24 -20 54
-41 67 -48 25 -13 26 -19 8 -44 -11 -14 -19 -16 -40 -7 -24 9 -34 24 -50 74
-4 10 -8 17 -10 15 -2 -2 7 -44 20 -94 14 -49 26 -96 26 -102 1 -7 4 -13 8
-13 3 0 6 -8 7 -18 2 -23 -36 -27 -45 -4 -5 14 -7 12 -12 -8 -4 -18 -14 -26
-33 -28 -24 -3 -27 0 -28 30 l-2 33 -6 -35 c-6 -33 -9 -35 -48 -38 -27 -2 -43
1 -43 8 0 6 -5 8 -11 5 -5 -4 -21 -4 -35 -1 -20 5 -23 11 -19 34 5 25 5 25 -4
4 -11 -23 -19 -26 -44 -16 -13 4 -12 14 5 67 11 34 29 84 39 111 22 55 23 66
9 66 -5 0 -9 -3 -8 -7 1 -5 -5 -24 -14 -44 -11 -25 -25 -38 -43 -43 -32 -8
-34 -7 -41 29 -4 22 -2 26 11 21 9 -3 13 -2 10 4 -5 9 9 15 18 8 2 -2 18 14
36 35 18 20 36 37 39 37 4 0 16 -12 28 -27z m324 -71 c0 -5 -6 -17 -14 -27
-13 -18 -14 -18 -9 8 5 24 23 39 23 19z m-481 -31 c12 -22 5 -31 -22 -31 -13
0 -17 5 -13 16 3 9 6 20 6 25 0 16 19 10 29 -10z m186 -201 c3 -5 -3 -10 -15
-10 -12 0 -18 5 -15 10 3 6 10 10 15 10 5 0 12 -4 15 -10z m120 0 c4 -6 -5
-10 -20 -10 -15 0 -24 4 -20 10 3 6 12 10 20 10 8 0 17 -4 20 -10z m-110 -50
c3 -5 -3 -10 -14 -10 -12 0 -21 5 -21 10 0 6 6 10 14 10 8 0 18 -4 21 -10z
m105 0 c0 -5 -9 -10 -20 -10 -11 0 -20 5 -20 10 0 6 9 10 20 10 11 0 20 -4 20
-10z m-13 -101 c2 -17 -1 -18 -12 -9 -8 7 -12 16 -9 21 9 16 20 10 21 -12z"/>
<path d="M385 710 c-4 -6 -4 -22 -1 -35 8 -33 38 -22 34 13 -3 28 -22 40 -33
22z"/>
<path d="M555 699 c-4 -13 -2 -27 7 -36 13 -12 16 -12 28 2 10 12 11 21 4 33
-16 25 -32 25 -39 1z"/>
<path d="M460 619 c0 -11 28 -19 45 -13 25 10 17 21 -15 21 -16 0 -30 -4 -30
-8z"/>
</g>
</svg>
